<?xml version="1.0" encoding="utf-8"?>
<!-- Generator: Adobe Illustrator 21.0.0, SVG Export Plug-In . SVG Version: 6.00 Build 0)  -->
<svg version="1.1" id="Layer_1" xmlns="http://www.w3.org/2000/svg" xmlns:xlink="http://www.w3.org/1999/xlink" x="0px" y="0px"
	 viewBox="0 0 612 792" style="enable-background:new 0 0 612 792;" xml:space="preserve">
<style type="text/css">
	.st0{fill:#39B770;}
	.st1{fill:#4BC7E8;}
	.st2{fill:#AAD154;}
	.st3{fill:#009F7D;}
</style>
<g>
	<path class="st0" d="M305.7,188.3c0,0,125.2,120.5,136.9,218.8c0,0,12.9,50.3-31.6,93.6c0,0-74.9,52.6-105.3,73.7"/>
	<path class="st1" d="M306.3,382.5l99.4-65.5c0,0,12.9,15.2,24.6,45.6l-124,84.2V382.5z"/>
	<g>
		<path class="st2" d="M306.3,188.3c0,0-125.2,120.5-136.9,218.8c0,0-12.9,50.3,31.6,93.6c0,0,74.9,52.6,105.3,73.7"/>
		<path class="st3" d="M306.3,445.6v63.2l138-91.3c0,0-7-48-14-55L306.3,445.6z"/>
	</g>
</g>
<path class="st1" d="M405.8,317l1.6-0.9c0,0,10.2,17.9,10.3,18.9"/>
</svg>
